PathFileType	4	(X/Y/Z)	C:\Users\°ÂÌØÂü\Desktop\20201223\Trimmed_bx_n_0_901.trc
DataRate	CameraRate	NumFrames	NumMarkers	Units	OrigDataRate	OrigDataStartFrame	OrigNumFrames
50.00	50.00	       7	43	mm	50.00	856	       978
Frame#	Time	Top.Head			R.Acromium			L.Acromium			Sternum			R.ASIS			L.ASIS			V.Sacral			R.Thigh.Upper			R.Thigh.Front			R.Thigh.Rear			R.Knee.Lat			R.Knee.Med			R.Shank.Upper			R.Shank.Front			R.Shank.Rear			R.Ankle.Lat			R.Midfoot.Lat			R.Toe.Lat			R.Toe.Tip			R.Toe.Med			R.Ankle.Med			R.Midfoot.Sup			R.Heel			L.Thigh.Upper			L.Thigh.Front			L.Thigh.Rear			L.Knee.Lat			L.Knee.Med			L.Shank.Upper			L.Shank.Front			L.Shank.Rear			L.Ankle.Lat			L.Midfoot.Lat			L.Toe.Lat			L.Toe.Tip			L.Toe.Med			L.Ankle.Med			L.Midfoot.Sup			L.Heel			origin1 front left			origin2 front right			origin 3 back right			origin 4 back leftt			
		X1	Y1	Z1	X2	Y2	Z2	X3	Y3	Z3	X4	Y4	Z4	X5	Y5	Z5	X6	Y6	Z6	X7	Y7	Z7	X8	Y8	Z8	X9	Y9	Z9	X10	Y10	Z10	X11	Y11	Z11	X12	Y12	Z12	X13	Y13	Z13	X14	Y14	Z14	X15	Y15	Z15	X16	Y16	Z16	X17	Y17	Z17	X18	Y18	Z18	X19	Y19	Z19	X20	Y20	Z20	X21	Y21	Z21	X22	Y22	Z22	X23	Y23	Z23	X24	Y24	Z24	X25	Y25	Z25	X26	Y26	Z26	X27	Y27	Z27	X28	Y28	Z28	X29	Y29	Z29	X30	Y30	Z30	X31	Y31	Z31	X32	Y32	Z32	X33	Y33	Z33	X34	Y34	Z34	X35	Y35	Z35	X36	Y36	Z36	X37	Y37	Z37	X38	Y38	Z38	X39	Y39	Z39	X40	Y40	Z40	X41	Y41	Z41	X42	Y42	Z42	X43	Y43	Z43	

856	17.100	-79.17715	265.49976	1201.62207	-311.86227	71.24953	1047.91553	-322.39697	423.47363	1055.30945	-438.86859	217.83087	909.42017	-762.31036	109.26321	944.84521	-729.93530	356.95355	917.57898	-874.38104	255.71309	1090.53992	-820.29504	80.78787	814.98108	-724.25940	136.82771	790.99976	-805.82819	91.64842	699.78424	-786.51440	116.21114	585.85382	-754.09119	222.55231	546.02118	-797.32733	115.44147	518.54132	-717.51093	165.50093	523.80853	-790.75916	107.35682	466.68002	-700.77759	132.93932	209.35904	-617.35791	76.91541	164.60201	-570.56262	55.71612	163.17299	-495.93332	99.85294	160.84430	-537.65686	149.47360	163.83858	-654.72552	209.44316	226.05214	-601.69910	185.71931	175.87845	-728.94751	201.34203	168.09264	-798.45813	449.09555	841.27716	-713.44897	384.04382	804.67017	-790.03119	446.11905	723.54047	-771.71246	421.90482	588.06177	-760.08972	311.02072	553.94110	-775.86548	426.04211	541.43921	-716.63617	365.75574	529.73981	-808.10065	434.19147	466.80682	-685.60504	426.43912	213.32643	-578.29669	463.79385	164.84270	-539.82477	474.04105	159.60638	-486.54227	415.62384	167.42999	-527.00757	380.02994	176.56688	-657.40131	333.37796	211.45580	-599.55151	346.56540	173.15164	-737.15308	358.18906	160.81055	-444.15414	448.65591	146.38472	-450.51343	75.03678	143.13458	-806.43512	82.54440	141.17268	-799.48389	456.97388	145.25583	
857	17.120	-79.97986	265.45630	1205.40906	-311.98880	71.13792	1050.52991	-322.59467	423.43137	1057.89893	-438.89090	218.34212	912.92371	-761.34973	109.44452	945.50446	-729.00574	356.81952	918.36237	-874.46216	255.47850	1090.43567	-820.08539	80.71178	815.03192	-724.16107	136.67239	790.96460	-805.78198	91.52908	699.73431	-786.73096	116.12390	585.69220	-754.29596	222.34349	545.96082	-797.61853	115.11475	518.62024	-717.76410	165.33005	523.77606	-790.94067	107.15376	466.71454	-700.81787	132.99701	209.22946	-617.35925	76.90096	164.60338	-570.69147	55.70661	163.09895	-495.92422	99.83457	160.85255	-537.67010	149.43529	163.91231	-654.72449	209.41197	226.09044	-601.72211	185.68134	175.91829	-728.95593	201.33646	168.10066	-798.41986	448.72311	841.43597	-713.34460	383.86301	804.70776	-790.06812	445.83490	723.58191	-771.75977	421.70859	588.06268	-760.10754	310.97192	553.90588	-775.88684	425.89069	541.48688	-716.59576	365.72183	529.77277	-808.14099	434.11572	466.84711	-685.67395	426.43802	213.31223	-578.32178	463.80389	164.84053	-539.83136	474.05109	159.60260	-486.53830	415.62439	167.42265	-527.03900	380.03830	176.60162	-657.40173	333.39542	211.43910	-599.54871	346.56470	173.15721	-737.14636	358.17920	160.82568	-444.15488	448.64063	146.40012	-450.48663	75.02622	143.11674	-806.44818	82.55624	141.18935	-799.64899	456.80386	145.10890	
858	17.140	-80.81461	265.37900	1209.37866	-312.05530	71.01735	1053.29871	-322.78705	423.34943	1060.66284	-438.92603	218.85300	916.53418	-760.35590	109.63588	946.18958	-728.03906	356.68079	919.18359	-874.54175	255.17502	1090.33789	-819.88086	80.58924	815.11121	-724.04968	136.48750	790.91364	-805.74609	91.37430	699.67395	-786.90741	115.99902	585.58636	-754.48993	222.14348	545.89075	-797.85181	114.84370	518.62341	-717.94507	165.16258	523.74701	-791.08154	107.00063	466.70587	-700.84253	133.16693	208.99420	-617.36084	76.88474	164.60361	-570.80487	55.69987	163.03238	-495.91965	99.81229	160.84485	-537.69141	149.39880	163.96385	-654.72949	209.38037	226.13004	-601.73273	185.64586	175.95570	-728.96393	201.31424	168.10513	-798.34546	448.33633	841.59302	-713.22113	383.65952	804.75494	-790.11261	445.51532	723.60675	-771.79559	421.47565	588.04004	-760.12451	310.89999	553.86322	-775.90405	425.73126	541.53766	-716.56799	365.63226	529.79803	-808.17847	434.00974	466.87445	-685.71088	426.42087	213.33560	-578.35938	463.82251	164.83839	-539.83655	474.06015	159.59451	-486.53094	415.61179	167.42029	-527.07910	380.03467	176.62755	-657.41211	333.40643	211.40117	-599.54987	346.57074	173.16376	-737.14063	358.17383	160.84576	-444.15985	448.62061	146.42761	-450.46347	75.00682	143.11766	-806.45496	82.56241	141.18805	-799.81165	456.61026	144.95023	
859	17.160	-81.69452	265.27463	1213.54993	-312.07944	70.89205	1056.24878	-322.99231	423.21884	1063.58752	-438.97427	219.36308	920.25098	-759.32898	109.83736	946.90063	-727.03528	356.53738	920.04297	-874.63153	254.81757	1090.24036	-819.67401	80.42971	815.22424	-723.92004	136.30118	790.82990	-805.71368	91.18810	699.62256	-787.02405	115.83049	585.54352	-754.65955	221.95219	545.81030	-798.00708	114.63055	518.56793	-718.04694	165.00584	523.72028	-791.17883	106.89767	466.65289	-700.85571	133.40623	208.68796	-617.36597	76.86192	164.59274	-570.88580	55.68875	162.99115	-495.92194	99.79066	160.82562	-537.71899	149.36404	163.99168	-654.74158	209.35765	226.16104	-601.73352	185.62486	175.98807	-728.97125	201.28348	168.10635	-798.22986	447.92429	841.72290	-713.07715	383.43372	804.80176	-790.14819	445.16156	723.64746	-771.81464	421.21854	588.01904	-760.11322	310.78427	553.81744	-775.92365	425.54858	541.58722	-716.54895	365.48438	529.81030	-808.21082	433.86673	466.88828	-685.71698	426.37308	213.39871	-578.40216	463.84634	164.83440	-539.83954	474.06900	159.58414	-486.52420	415.59009	167.42355	-527.11420	380.02820	176.64632	-657.42816	333.40381	211.34509	-599.55408	346.58154	173.16992	-737.13867	358.17102	160.85551	-444.16571	448.60086	146.45074	-450.45520	74.98540	143.13783	-806.44733	82.56319	141.17064	-799.92188	456.43521	144.82118	
860	17.180	-82.62817	265.16174	1217.94800	-312.09726	70.76697	1059.40088	-323.24100	423.05249	1066.65454	-439.03595	219.87201	924.07367	-758.26904	110.04904	947.63770	-725.99426	356.38928	920.94055	-874.74963	254.43532	1090.13684	-819.44763	80.25542	815.36224	-723.76282	136.12630	790.70697	-805.66711	90.98069	699.59662	-787.07928	115.63370	585.54272	-754.78564	221.76930	545.73932	-798.08667	114.46053	518.48431	-718.08539	164.86035	523.69769	-791.23767	106.82142	466.57159	-700.85809	133.63768	208.38649	-617.37427	76.82951	164.56650	-570.92395	55.67231	162.97945	-495.92865	99.77424	160.80113	-537.74670	149.32863	164.00500	-654.75867	209.34642	226.18027	-601.73138	185.62460	176.00824	-728.97473	201.25623	168.10759	-798.08618	447.48206	841.81531	-712.91425	383.18726	804.84222	-790.14844	444.77945	723.72943	-771.81793	420.95721	588.03510	-760.03931	310.60492	553.78076	-775.93976	425.33011	541.63757	-716.53265	365.29706	529.80994	-808.23584	433.69345	466.89270	-685.70374	426.29041	213.48367	-578.44299	463.87131	164.82828	-539.84143	474.07776	159.57375	-486.52097	415.57239	167.43034	-527.13593	380.02933	176.66096	-657.44012	333.37466	211.29384	-599.55774	346.59128	173.17218	-737.13831	358.16443	160.84853	-444.16663	448.58618	146.45464	-450.46811	74.96867	143.16945	-806.42346	82.56052	141.14713	-799.96075	456.31033	144.74130	
861	17.200	-83.62814	265.06174	1222.59692	-312.13947	70.64124	1062.76086	-323.55603	422.88037	1069.85278	-439.11127	220.37933	928.00153	-757.17615	110.27099	948.40076	-724.91614	356.23651	921.87659	-874.91406	254.05919	1090.02637	-819.18854	80.08926	815.50153	-723.56958	135.95364	790.55188	-805.59143	90.76697	699.59875	-787.08362	115.43412	585.55188	-754.85114	221.59222	545.71088	-798.10718	114.31155	518.39667	-718.09235	164.71893	523.67743	-791.26978	106.73571	466.48083	-700.84906	133.79832	208.16052	-617.38306	76.78889	164.52798	-570.91144	55.65231	162.99632	-495.93454	99.76430	160.77667	-537.76801	149.29153	164.01604	-654.77765	209.34366	226.19048	-601.73303	185.64215	176.01279	-728.97083	201.24057	168.10980	-797.93726	447.00906	841.87775	-712.72809	382.92868	804.88123	-790.09143	444.38135	723.85736	-771.80579	420.70758	588.11304	-759.88385	310.35977	553.76105	-775.93323	425.08420	541.69513	-716.51239	365.10272	529.79968	-808.25073	433.50638	466.89539	-685.68860	426.18799	213.56566	-578.47711	463.89365	164.82130	-539.84369	474.08615	159.56447	-486.52225	415.57111	167.43681	-527.14276	380.04459	176.67113	-657.43823	333.31088	211.27943	-599.55902	346.59503	173.16647	-737.13501	358.14844	160.83080	-444.15891	448.57874	146.43802	-450.49646	74.95836	143.20032	-806.39203	82.55798	141.12672	-799.94897	456.24200	144.70186	
862	17.220	-84.71545	264.98523	1227.51270	-312.22501	70.51298	1066.31250	-323.93860	422.73196	1073.18506	-439.20062	220.88467	932.03406	-756.05029	110.50327	949.18994	-723.80066	356.07901	922.85126	-875.13062	253.70911	1089.91406	-818.89526	79.94077	815.61505	-723.34015	135.76256	790.38190	-805.48486	90.56158	699.61658	-787.05225	115.24885	585.54736	-754.85345	221.41284	545.75031	-798.08740	114.16362	518.31573	-718.10284	164.57211	523.65167	-791.28741	106.60991	466.38913	-700.83093	133.86980	208.03844	-617.39014	76.74593	164.48543	-570.84991	55.62893	163.03940	-495.93555	99.75892	160.75735	-537.77869	149.25563	164.03342	-654.79547	209.34389	226.19739	-601.73969	185.66626	176.00697	-728.95978	201.23470	168.11101	-797.80017	446.50885	841.92938	-712.51080	382.66858	804.92688	-789.97473	443.98621	724.01538	-771.76923	420.47333	588.24847	-759.66333	310.07697	553.75146	-775.88269	424.84317	541.76599	-716.48083	364.93466	529.78394	-808.24976	433.32315	466.90475	-685.68701	426.09256	213.62625	-578.50330	463.91263	164.81479	-539.84741	474.09344	159.55623	-486.52689	415.58792	167.43997	-527.13806	380.07263	176.67323	-657.42065	333.21899	211.31766	-599.55865	346.59222	173.15215	-737.12811	358.12308	160.81355	-444.14621	448.57690	146.41338	-450.52487	74.95120	143.22131	-806.36914	82.55834	141.11310	-799.92749	456.21591	144.68182	
